<svg version="1.1" viewBox="0.0 0.0 100.0 100.0" fill="none" stroke="none" stroke-linecap="square" stroke-miterlimit="10" xmlns:xlink="http://www.w3.org/1999/xlink" xmlns="http://www.w3.org/2000/svg"><clipPath id="p.0"><path d="m0 0l100.0 0l0 100.0l-100.0 0l0 -100.0z" clip-rule="nonzero"/></clipPath><g clip-path="url(#p.0)"><path fill="#000000" fill-opacity="0.0" d="m0 0l100.0 0l0 100.0l-100.0 0z" fill-rule="evenodd"/><path fill="#000000" fill-opacity="0.0" d="m98.73066 1.2878215l-53.19685 0" fill-rule="evenodd"/><path stroke="#000000" stroke-width="3.0" stroke-linejoin="round" stroke-linecap="butt" d="m98.73066 1.2878215l-53.19685 0" fill-rule="evenodd"/><path fill="#000000" fill-opacity="0.0" d="m98.57347 35.97996l-53.19685 0" fill-rule="evenodd"/><path stroke="#000000" stroke-width="3.0" stroke-linejoin="round" stroke-linecap="butt" d="m98.57347 35.97996l-53.19685 0" fill-rule="evenodd"/><path fill="#000000" fill-opacity="0.0" d="m98.855644 70.672104l-66.96063 -0.3149643" fill-rule="evenodd"/><path stroke="#000000" stroke-width="3.0" stroke-linejoin="round" stroke-linecap="butt" d="m98.855644 70.672104l-66.96063 -0.3149643" fill-rule="evenodd"/><path fill="#000000" fill-opacity="0.0" d="m98.947426 98.11367l-81.44882 0.12598419" fill-rule="evenodd"/><path stroke="#000000" stroke-width="3.0" stroke-linejoin="round" stroke-linecap="butt" d="m98.947426 98.11367l-81.44882 0.12598419" fill-rule="evenodd"/><path fill="#000000" fill-opacity="0.0" d="m45.88171 35.62636l0 -34.771656" fill-rule="evenodd"/><path stroke="#000000" stroke-width="3.0" stroke-linejoin="round" stroke-linecap="butt" d="m45.88171 35.62636l0 -34.771656" fill-rule="evenodd"/><path fill="#000000" fill-opacity="0.0" d="m32.194225 70.808395l0.031497955 -54.897636" fill-rule="evenodd"/><path stroke="#000000" stroke-width="3.0" stroke-linejoin="round" stroke-linecap="butt" d="m32.194225 70.808395l0.031497955 -54.897636" fill-rule="evenodd"/><path fill="#000000" fill-opacity="0.0" d="m46.380577 16.304462l-14.740158 0" fill-rule="evenodd"/><path stroke="#000000" stroke-width="3.0" stroke-linejoin="round" stroke-linecap="butt" d="m46.380577 16.304462l-14.740158 0" fill-rule="evenodd"/><path fill="#000000" fill-opacity="0.0" d="m32.498657 43.219963l-15.622049 0.25196838" fill-rule="evenodd"/><path stroke="#000000" stroke-width="3.0" stroke-linejoin="round" stroke-linecap="butt" d="m32.498657 43.219963l-15.622049 0.25196838" fill-rule="evenodd"/><path fill="#000000" fill-opacity="0.0" d="m17.56131 98.72441l-0.062992096 -55.68504" fill-rule="evenodd"/><path stroke="#000000" stroke-width="3.0" stroke-linejoin="round" stroke-linecap="butt" d="m17.56131 98.72441l-0.062992096 -55.68504" fill-rule="evenodd"/><path fill="#000000" fill-opacity="0.0" d="m17.56131 69.81265l-16.755905 0.22047424" fill-rule="evenodd"/><path stroke="#000000" stroke-width="3.0" stroke-linejoin="round" stroke-linecap="butt" d="m17.56131 69.81265l-16.755905 0.22047424" fill-rule="evenodd"/></g></svg>