<svg id="Icons" height="512" viewBox="0 0 60 60" width="512" xmlns="http://www.w3.org/2000/svg"><path d="m37.97 59h-15.94a2.007 2.007 0 0 1 -1.84-2.79l4.81-11.21 5-2.79 5 2.79 4.81 11.21a2.007 2.007 0 0 1 -1.84 2.79z" fill="#804169"/><path d="m35.426 9.245 5.574 26.755-11 3.543-11-3.543 5.592-26.839z" fill="#b0d3f0"/><path d="m25.8 1.737-2.534 9.292a.769.769 0 0 0 .742.971h11.985a.769.769 0 0 0 .742-.971l-2.535-9.292a1 1 0 0 0 -.964-.737h-6.472a1 1 0 0 0 -.964.737z" fill="#cc66a1"/><path d="m41 36-6 9h-10l-6-9z" fill="#cc66a1"/><g fill="#f29c1f"><path d="m25 36s3-1 3-6a14.347 14.347 0 0 0 -.831-5 3 3 0 1 1 5.662 0 14.347 14.347 0 0 0 -.831 5c0 5 3 6 3 6z"/><path d="m27.177 11.975a3.07 3.07 0 0 0 -.134 1.543 3 3 0 1 0 5.788-1.518z"/></g></svg>