<svg height="512" viewBox="0 0 32 58" width="512" xmlns="http://www.w3.org/2000/svg"><g id="038---Lava-Lamp" fill="none"><path id="Shape" d="m31.9 55-6.69-14c5.68-7.94 4.49-6.29 6-8.44.7083303-.9828204.9224374-2.2379309.58-3.4-8.28-28.16-6.79-22.82-8.2-27.73-.2525433-.84937079-1.0338809-1.43130451-1.92-1.43h-11.34c-.88611914-.00130451-1.66745673.58062921-1.92 1.43-1.51 5.1-5 17-8.23 27.72-.35031984 1.1667291-.13978226 2.4299546.57 3.42l6 8.43-6.65 14c-.11932086.2609242-.12082001.5605305-.00411624.8226357s.3403667.4614569.61411624.5473643c7 2.16 23.59 2.15 30.58 0 .2737495-.0859074.4974125-.2852591.6141162-.5473643.1167038-.2621052.1152047-.5617115-.0041162-.8226357z" fill="#7f8c8d"/><path id="Shape" d="m31.29 56.39c-7 2.14-23.56 2.16-30.58 0-.27912885-.0849733-.50722378-.287618-.62447562-.5547985-.11725184-.2671804-.1119645-.5722447.01447562-.8352015l6.69-14c3.00894035.7578815 6.1085181 1.0944264 9.21 1 3.1023094.1167424 6.205041-.2201449 9.21-1l6.69 14c.1264401.2629568.1317275.5680211.0144756.8352015-.1172518.2671805-.3453468.4698252-.6244756.5547985z" fill="#2980ba"/><path id="Shape" d="m30.37 56.65c-7.17 1.81-21.55 1.81-28.74 0 .23-.5 6.75-15 7-15.65.98401603.3314935 1.9855305.6085792 3 .83 2.866757.3905878 5.773243.3905878 8.64 0 1.0148632-.2198256 2.0164661-.4969358 3-.83z" fill="#3b97d3"/><path id="Shape" d="m26.66 54.31c-.3882694.0027797-.7430498-.2194455-.91-.57l-1.1-2.31c-.18509-.3253853-.172946-.7268982.0314706-1.0405027.2044166-.3136044.5668689-.4867761.9392789-.4487665.37241.0380095.6924041.2808342.8292505.6292692l1.11 2.31c.1473495.3093717.12603.6726478-.0564953.9626603-.1825254.2900125-.5008361.466371-.8435047.4673397z" fill="#fff"/><path id="Shape" d="m23.64 48c-.3928994-.0008198-.7489117-.231641-.91-.59l-2.4-5.27c-.1869275-.4941747.0428292-1.0484959.524541-1.2655309.4817119-.217035 1.049142-.0218859 1.295459.4455309l2.4 5.27c.138945.3090949.111891.6675277-.0718755.9522648s-.4992368.4570288-.8381245.4577352z" fill="#fff"/><path id="Shape" d="m23.38 5h-14.76l.91-3.57c.15123875-.7979698.8288687-1.38883005 1.64-1.43h9.66c.8111313.04116995 1.4887612.6320302 1.64 1.43z" fill="#95a5a5"/><path id="Shape" d="m31.25 32.56-1.16 1.62c-7.55 2.44-20.63 2.44-28.19 0l-1.15-1.61c-.70978226-.9900454-.92031984-2.2532709-.57-3.42l7.17-24.15h17.3l7.18 24.16c.3424374 1.1620691.1283303 2.4171796-.58 3.4z" fill="#fb7b76"/><g fill="#cc4b4c"><path id="Shape" d="m21 35.82v-1.82c.0021194-1.5094407-.6777733-2.9390529-1.85-3.89-.7767251-.6618607-1.2011485-1.6475311-1.1482338-2.6666294.0529148-1.0190984.5771387-1.9555121 1.4182338-2.5333706 3.31-2.49 1.07-6.91-3.42-6.91s-6.72 4.42-3.42 6.91c.8376.5803486 1.359005 1.5160647 1.4118439 2.5337023s-.368853 2.0023223-1.1418439 2.6662977c-1.1722267.9509471-1.8521194 2.3805593-1.85 3.89v1.82l5 1.5z"/><ellipse id="Oval" cx="19" cy="11.5" rx="3" ry="2.5"/><path id="Shape" d="m1.87 23.47c2.62-1.27 6.13.15 6.13 2.53 0 3-5.23 4.12-7.37 1.62z"/></g><path id="Shape" d="m26.69 35.05-3.14 6.32c-4.9978697.844986-10.1021303.844986-15.1 0l-3.14-6.32c7.0700799 1.2700791 14.3099201 1.2700791 21.38 0z" fill="#95a5a5"/><path id="Shape" d="m28 31.3c-.459171.0182755-.8716939-.2787409-1-.72l-2.17-7.3c-.0859025-.2639682-.0582154-.5517661.0764352-.7945164.1346505-.2427503.3641469-.4186072.6335648-.4854836.5301934-.1546397 1.0853603.1498066 1.24.68l2.22 7.32c.0983996.3116604.038293.6517384-.1609758.9107878-.1992688.2590495-.5125511.4043769-.8390242.3892122z" fill="#fff"/><path id="Shape" d="m24.63 20c-.4563699.0195036-.8679485-.2727171-1-.71l-.3-1c-.1300879-.3486659-.0558012-.7407289.1928185-1.0176387.2486198-.2769097.6304422-.3928558.9910584-.3009497.3606162.0919062.6403678.3764602.7261231.7385884l.3 1c.089825.2952177.0383245.6153706-.139552.8675253-.1778766.2521547-.4622039.4080654-.770448.4224747z" fill="#fff"/></g></svg>